<svg width="193" height="193" viewBox="0 0 193 193" fill="none" xmlns="http://www.w3.org/2000/svg">
<circle cx="96.5" cy="96.5" r="96" stroke="#514A7E"/>
<path d="M42.3418 90.6133H40.6133V97H38.7383V82.7812H40.6133V89.0508H42.0781L47.0488 82.7812H49.3828L43.9531 89.6758L49.7832 97H47.4883L42.3418 90.6133ZM57.7422 97C57.638 96.7917 57.5534 96.4206 57.4883 95.8867C56.6484 96.7591 55.6458 97.1953 54.4805 97.1953C53.4388 97.1953 52.5827 96.9023 51.9121 96.3164C51.248 95.724 50.916 94.9753 50.916 94.0703C50.916 92.9701 51.3327 92.1172 52.166 91.5117C53.0059 90.8997 54.1842 90.5938 55.7012 90.5938H57.459V89.7637C57.459 89.1322 57.2702 88.6309 56.8926 88.2598C56.515 87.8822 55.9583 87.6934 55.2227 87.6934C54.5781 87.6934 54.0378 87.8561 53.6016 88.1816C53.1654 88.5072 52.9473 88.901 52.9473 89.3633H51.1309C51.1309 88.8359 51.3164 88.3281 51.6875 87.8398C52.0651 87.3451 52.5729 86.9544 53.2109 86.668C53.8555 86.3815 54.5618 86.2383 55.3301 86.2383C56.5475 86.2383 57.5013 86.5443 58.1914 87.1562C58.8815 87.7617 59.2396 88.5983 59.2656 89.666V94.5293C59.2656 95.4993 59.3893 96.2708 59.6367 96.8438V97H57.7422ZM54.7441 95.623C55.3105 95.623 55.8477 95.4766 56.3555 95.1836C56.8633 94.8906 57.2311 94.5098 57.459 94.041V91.873H56.043C53.8294 91.873 52.7227 92.5208 52.7227 93.8164C52.7227 94.3828 52.9115 94.8255 53.2891 95.1445C53.6667 95.4635 54.1517 95.623 54.7441 95.623ZM69.793 87.8984H66.248V97H64.4414V87.8984H60.9648V86.4336H69.793V87.8984ZM77.918 97C77.8138 96.7917 77.7292 96.4206 77.6641 95.8867C76.8242 96.7591 75.8216 97.1953 74.6562 97.1953C73.6146 97.1953 72.7585 96.9023 72.0879 96.3164C71.4238 95.724 71.0918 94.9753 71.0918 94.0703C71.0918 92.9701 71.5085 92.1172 72.3418 91.5117C73.1816 90.8997 74.36 90.5938 75.877 90.5938H77.6348V89.7637C77.6348 89.1322 77.446 88.6309 77.0684 88.2598C76.6908 87.8822 76.1341 87.6934 75.3984 87.6934C74.7539 87.6934 74.2135 87.8561 73.7773 88.1816C73.3411 88.5072 73.123 88.901 73.123 89.3633H71.3066C71.3066 88.8359 71.4922 88.3281 71.8633 87.8398C72.2409 87.3451 72.7487 86.9544 73.3867 86.668C74.0312 86.3815 74.7376 86.2383 75.5059 86.2383C76.7233 86.2383 77.6771 86.5443 78.3672 87.1562C79.0573 87.7617 79.4154 88.5983 79.4414 89.666V94.5293C79.4414 95.4993 79.5651 96.2708 79.8125 96.8438V97H77.918ZM74.9199 95.623C75.4863 95.623 76.0234 95.4766 76.5312 95.1836C77.0391 94.8906 77.4069 94.5098 77.6348 94.041V91.873H76.2188C74.0052 91.873 72.8984 92.5208 72.8984 93.8164C72.8984 94.3828 73.0872 94.8255 73.4648 95.1445C73.8424 95.4635 74.3275 95.623 74.9199 95.623ZM90.9355 86.4336V97H89.1191V87.9277H85.5254L85.3105 91.8828C85.1934 93.6992 84.8874 94.998 84.3926 95.7793C83.9043 96.5605 83.1263 96.9674 82.0586 97H81.3359V95.4082L81.8535 95.3691C82.4395 95.304 82.8594 94.9655 83.1133 94.3535C83.3672 93.7415 83.5299 92.6087 83.6016 90.9551L83.7969 86.4336H90.9355ZM93.3574 91.6191C93.3574 90.584 93.5592 89.653 93.9629 88.8262C94.373 87.9993 94.9395 87.3613 95.6621 86.9121C96.3913 86.4629 97.2214 86.2383 98.1523 86.2383C99.5911 86.2383 100.753 86.7363 101.639 87.7324C102.531 88.7285 102.977 90.0534 102.977 91.707V91.834C102.977 92.8626 102.778 93.7871 102.381 94.6074C101.99 95.4212 101.427 96.056 100.691 96.5117C99.9622 96.9674 99.1224 97.1953 98.1719 97.1953C96.7396 97.1953 95.5775 96.6973 94.6855 95.7012C93.8001 94.7051 93.3574 93.3867 93.3574 91.7461V91.6191ZM95.1738 91.834C95.1738 93.0059 95.444 93.9466 95.9844 94.6562C96.5312 95.3659 97.2604 95.7207 98.1719 95.7207C99.0898 95.7207 99.819 95.3626 100.359 94.6465C100.9 93.9238 101.17 92.9147 101.17 91.6191C101.17 90.4603 100.893 89.5228 100.34 88.8066C99.793 88.084 99.0638 87.7227 98.1523 87.7227C97.2604 87.7227 96.541 88.0775 95.9941 88.7871C95.4473 89.4967 95.1738 90.5124 95.1738 91.834ZM112.068 87.9277H107.195V97H105.379V86.4336H112.068V87.9277Z" fill="#514A7E"/>
<path d="M156.354 113.354C156.549 113.158 156.549 112.842 156.354 112.646L153.172 109.464C152.976 109.269 152.66 109.269 152.464 109.464C152.269 109.66 152.269 109.976 152.464 110.172L155.293 113L152.464 115.828C152.269 116.024 152.269 116.34 152.464 116.536C152.66 116.731 152.976 116.731 153.172 116.536L156.354 113.354ZM77 113.5H156V112.5H77V113.5Z" fill="#514A7E"/>
</svg>
