<svg width="22.694336" height="19.640137" viewBox="0 0 22.6943 19.6401" fill="none" xmlns="http://www.w3.org/2000/svg" xmlns:xlink="http://www.w3.org/1999/xlink">
	<desc>
			Created with Pixso.
	</desc>
	<defs/>
	<path id="Vector" d="M20.459 9.95117L19.374 9.95117L19.374 17.4775L14.6211 12.6396L13.71 13.5664L18.3789 18.3257L2.36328 18.3257L6.88379 13.5664L5.9541 12.6528L1.29199 17.563L1.29199 6.17822L9.31836 14.3091C9.56055 14.5542 9.8877 14.6914 10.2295 14.6914C10.5703 14.6914 10.8984 14.5542 11.1396 14.3091L15.4414 9.95117L13.6133 9.95117L10.2295 13.376L2.1377 5.17871L11.6631 5.17871L12.4053 3.86426L1.29199 3.86426C0.949219 3.86426 0.620117 4.00293 0.37793 4.24951C0.135742 4.49609 0 4.83008 0 5.17871L0 18.3257C0 18.6743 0.135742 19.0088 0.37793 19.2554C0.620117 19.5015 0.949219 19.6401 1.29199 19.6401L19.374 19.6401C19.7168 19.6401 20.0449 19.5015 20.2871 19.2554C20.5293 19.0088 20.665 18.6743 20.665 18.3257L20.665 9.93799L20.459 9.95117Z" fill="#FFFDF5" fill-opacity="1.000000" fill-rule="nonzero"/>
	<path id="Vector" d="M17.1182 0.435059L13.1777 7.23242C13.1025 7.36523 13.0625 7.51514 13.0635 7.66797C13.0645 7.82031 13.1045 7.97021 13.1807 8.10254C13.2578 8.23486 13.3672 8.34473 13.5 8.42188C13.6318 8.49902 13.7822 8.54053 13.9355 8.54248L21.8223 8.54248C21.9756 8.54053 22.126 8.49902 22.2588 8.42188C22.3906 8.34473 22.501 8.23486 22.5771 8.10254C22.6533 7.97021 22.6943 7.82031 22.6943 7.66797C22.6953 7.51514 22.6562 7.36523 22.5801 7.23242L18.6406 0.435059C18.5625 0.302734 18.4512 0.192871 18.3174 0.116211C18.1846 0.0400391 18.0332 0 17.8789 0C17.7256 0 17.5742 0.0400391 17.4404 0.116211C17.3066 0.192871 17.1953 0.302734 17.1182 0.435059Z" fill="#FFFDF5" fill-opacity="1.000000" fill-rule="nonzero"/>
</svg>
