<svg width="20.370117" height="20.283691" viewBox="0 0 20.3701 20.2837" fill="none" xmlns="http://www.w3.org/2000/svg" xmlns:xlink="http://www.w3.org/1999/xlink">
	<desc>
			Created with Pixso.
	</desc>
	<defs/>
	<path id="Vector" d="M10.1855 5.38135C9.23926 5.38135 8.31543 5.66064 7.5293 6.18359C6.74316 6.70654 6.12988 7.4502 5.76855 8.31982C5.40625 9.18994 5.31152 10.147 5.49609 11.0703C5.68066 11.9937 6.13574 12.8423 6.80469 13.5078C7.47363 14.1738 8.3252 14.627 9.25293 14.8105C10.1797 14.9941 11.1416 14.8999 12.0146 14.54C12.8887 14.1797 13.6348 13.5693 14.1602 12.7866C14.6855 12.0034 14.9658 11.0835 14.9658 10.1416C14.9648 8.87988 14.46 7.66943 13.5645 6.77734C12.668 5.88477 11.4531 5.38281 10.1855 5.38135ZM10.1855 13.6602C9.48633 13.6602 8.80273 13.4541 8.22168 13.0674C7.64062 12.6807 7.1875 12.1313 6.9209 11.4883C6.65332 10.8452 6.58301 10.1377 6.71973 9.45508C6.85547 8.77295 7.19238 8.146 7.68652 7.65381C8.18066 7.16162 8.81055 6.82666 9.49609 6.69092C10.1816 6.55518 10.8916 6.62451 11.5371 6.89111C12.1836 7.15723 12.7354 7.6084 13.123 8.18701C13.5117 8.76562 13.7188 9.4458 13.7188 10.1416C13.7178 11.0747 13.3447 11.9688 12.6826 12.6284C12.0205 13.2881 11.1221 13.6592 10.1855 13.6602ZM14.7578 0L5.6123 0C4.12402 0.00146484 2.69824 0.59082 1.64551 1.63867C0.59375 2.68652 0.00195312 4.10693 0 5.58838L0 14.6953C0.00195312 16.1768 0.59375 17.5972 1.64551 18.645C2.69824 19.6924 4.12402 20.2817 5.6123 20.2837L14.7578 20.2837C16.2461 20.2817 17.6729 19.6924 18.7246 18.645C19.7764 17.5972 20.3691 16.1768 20.3701 14.6953L20.3701 5.58838C20.3691 4.10693 19.7764 2.68652 18.7246 1.63867C17.6729 0.59082 16.2461 0.00146484 14.7578 0ZM19.123 14.6953C19.1221 15.8477 18.6611 16.9521 17.8438 17.7671C17.0254 18.582 15.915 19.0405 14.7578 19.0415L5.6123 19.0415C4.45508 19.0405 3.3457 18.582 2.52734 17.7671C1.70898 16.9521 1.24805 15.8477 1.24707 14.6953L1.24707 5.58838C1.24805 4.43604 1.70898 3.33105 2.52734 2.51611C3.3457 1.70166 4.45508 1.24316 5.6123 1.2417L14.7578 1.2417C15.915 1.24316 17.0254 1.70166 17.8438 2.51611C18.6611 3.33105 19.1221 4.43604 19.123 5.58838L19.123 14.6953ZM16.6289 4.76025C16.6289 4.96533 16.5684 5.16504 16.4541 5.33545C16.3398 5.50537 16.1768 5.63818 15.9873 5.71631C15.7979 5.79492 15.5889 5.81543 15.3867 5.77539C15.1855 5.73535 15 5.63672 14.8545 5.49219C14.709 5.34766 14.6104 5.16309 14.5703 4.9624C14.5303 4.76172 14.5508 4.55371 14.6289 4.36426C14.708 4.17529 14.8408 4.01367 15.0117 3.8999C15.1826 3.78613 15.3838 3.72559 15.5898 3.72559C15.8652 3.72607 16.1289 3.83496 16.3242 4.02881C16.5186 4.22314 16.6289 4.48584 16.6289 4.76025Z" fill="#FFFDF5" fill-opacity="1.000000" fill-rule="nonzero"/>
</svg>
