<svg width="20.370117" height="21.094727" viewBox="0 0 20.3701 21.0947" fill="none" xmlns="http://www.w3.org/2000/svg" xmlns:xlink="http://www.w3.org/1999/xlink">
	<desc>
			Created with Pixso.
	</desc>
	<defs/>
	<path id="Vector" d="M17.8242 21.0947L2.5459 21.0947C1.84375 21.0947 1.24316 20.8374 0.746094 20.3223C0.249023 19.8071 0 19.186 0 18.458L0 2.63672C0 1.90918 0.249023 1.2876 0.746094 0.772461C1.24316 0.257324 1.84375 0 2.5459 0L17.8242 0C18.5273 0 19.127 0.257324 19.624 0.772461C20.1221 1.2876 20.3701 1.90918 20.3701 2.63672L20.3701 18.458C20.3701 19.186 20.1221 19.8071 19.624 20.3223C19.127 20.8374 18.5273 21.0947 17.8242 21.0947ZM6.36621 7.91064L6.36621 5.93311C6.36621 5.56201 6.25586 5.19824 6.03711 4.84131C5.81836 4.48389 5.57617 4.22998 5.31152 4.0791C5.0459 3.92773 4.84082 3.9209 4.69434 4.05811L3.24219 5.58252C2.84473 5.99463 2.61914 6.54736 2.56641 7.24121C2.5127 7.93457 2.61621 8.68994 2.875 9.50732C3.13281 10.3242 3.54785 11.1895 4.11816 12.1025C4.68848 13.0161 5.37109 13.8848 6.16699 14.7085C6.96289 15.5327 7.80176 16.2402 8.68359 16.8306C9.56543 17.4209 10.4004 17.8535 11.1895 18.1284C11.9785 18.4028 12.708 18.5127 13.3779 18.458C14.0479 18.4028 14.5811 18.1694 14.9795 17.7578L16.4512 16.2329C16.584 16.0957 16.5771 15.8862 16.4316 15.605C16.2861 15.3232 16.04 15.0693 15.6953 14.8428C15.3506 14.6162 14.999 14.5029 14.6416 14.5029L12.7314 14.5029L11.4385 15.3267C10.8418 15.1621 10.1055 14.7153 9.23047 13.9878C8.35547 13.2598 7.56641 12.4429 6.86328 11.5361C6.16016 10.6299 5.72949 9.86768 5.57031 9.24951L6.36621 7.91064ZM13.9648 11.2065L15.2578 11.4331C15.1514 9.78516 14.5352 8.37744 13.4082 7.20996C12.2803 6.04297 10.9277 5.4043 9.34961 5.29443L9.54883 6.6333C10.7021 6.78418 11.6904 7.28564 12.5127 8.13721C13.335 8.98877 13.8193 10.0117 13.9648 11.2065ZM9.78711 8.01367L10.0264 9.49658C10.543 9.75781 10.9346 10.1631 11.2002 10.7124L12.6318 10.9595C12.46 10.2314 12.1182 9.60303 11.6074 9.07471C11.0967 8.5459 10.4902 8.19189 9.78711 8.01367ZM8.91211 2.63672L9.13086 3.97607C10.457 4.00342 11.6807 4.36377 12.8008 5.05762C13.9219 5.75098 14.8174 6.67773 15.4863 7.83838C16.1562 8.99902 16.5049 10.2661 16.5312 11.6392L17.8242 11.8657C17.8242 10.6162 17.5889 9.42139 17.1182 8.28125C16.6475 7.1416 16.0137 6.15967 15.2178 5.33545C14.4229 4.51172 13.4746 3.85596 12.373 3.36816C11.2725 2.88086 10.1191 2.63672 8.91211 2.63672Z" fill="#FFFDF5" fill-opacity="1.000000" fill-rule="nonzero"/>
</svg>
