<svg width="20.000000" height="20.000000" viewBox="0 0 20 20" fill="none" xmlns="http://www.w3.org/2000/svg" xmlns:xlink="http://www.w3.org/1999/xlink">
	<desc>
			Created with Pixso.
	</desc>
	<defs>
		<clipPath id="clip211_66">
			<rect id="carbon:phone-voice" width="20.000000" height="20.000000" fill="white" fill-opacity="0"/>
		</clipPath>
	</defs>
	<rect id="carbon:phone-voice" width="20.000000" height="20.000000" fill="#FFFFFF" fill-opacity="0"/>
	<g clip-path="url(#clip211_66)">
		<path id="Vector" d="M15 11.2646L13.75 11.2646C13.749 10.7656 13.5518 10.2871 13.2002 9.93408C12.8486 9.58105 12.3721 9.38232 11.875 9.38184L11.875 8.12646C12.7031 8.12744 13.498 8.4585 14.084 9.04688C14.6699 9.63525 14.999 10.4326 15 11.2646Z" fill="#FFFDF5" fill-opacity="1.000000" fill-rule="nonzero"/>
		<path id="Vector" d="M17.5 11.2646L16.25 11.2646C16.249 10.1001 15.7871 8.98291 14.9668 8.15967C14.1465 7.33594 13.0352 6.87256 11.875 6.87109L11.875 5.61572C13.3662 5.61719 14.7959 6.21289 15.8506 7.27197C16.9053 8.33105 17.498 9.76709 17.5 11.2646Z" fill="#FFFDF5" fill-opacity="1.000000" fill-rule="nonzero"/>
		<path id="Vector" d="M16.25 21.3076L16.1436 21.3076C3.8623 20.5981 2.11816 10.1914 1.875 7.01514C1.83691 6.51709 1.99707 6.02441 2.32031 5.64551C2.64453 5.26611 3.10449 5.03174 3.60059 4.99365C3.64941 4.98975 3.69922 4.98779 3.75 4.98779L7.04297 4.98779C7.29395 4.98779 7.53809 5.06299 7.74609 5.20361C7.95312 5.34473 8.11328 5.54492 8.20605 5.77881L9.15625 8.12598C9.24707 8.35449 9.27051 8.60449 9.2207 8.8457C9.17188 9.08643 9.05371 9.30811 8.88086 9.48193L7.5498 10.8315C7.75684 12.0186 8.32227 13.1133 9.16992 13.9663C10.0176 14.8198 11.1055 15.3906 12.2871 15.6016L13.6436 14.2524C13.8193 14.0806 14.042 13.9644 14.2832 13.9185C14.5244 13.873 14.7734 13.8994 15 13.9951L17.3555 14.9429C17.585 15.0386 17.7803 15.2012 17.917 15.4087C18.0547 15.6167 18.126 15.8608 18.125 16.1104L18.125 19.4243C18.125 19.9238 17.9268 20.4028 17.5752 20.7559C17.2236 21.1089 16.7471 21.3076 16.25 21.3076ZM3.75 6.24316C3.66797 6.24268 3.58594 6.25879 3.51074 6.29004C3.43457 6.32129 3.36523 6.36768 3.30762 6.42578C3.24902 6.48389 3.20312 6.55273 3.1709 6.62891C3.13965 6.70508 3.12305 6.78662 3.12305 6.86914C3.12305 6.88672 3.12305 6.90381 3.125 6.9209C3.41211 10.6367 5.25586 19.4243 16.2119 20.0522C16.3779 20.062 16.54 20.0054 16.6641 19.895C16.7881 19.7847 16.8633 19.6294 16.873 19.4634L16.875 19.4243L16.875 16.1104L14.5186 15.1626L12.7246 16.9512L12.4248 16.9136C6.9873 16.2295 6.25 10.7686 6.25 10.7124L6.21191 10.4111L7.9873 8.60938L7.0498 6.24316L3.75 6.24316Z" fill="#FFFDF5" fill-opacity="1.000000" fill-rule="nonzero"/>
	</g>
</svg>
