<svg width="20.000000" height="19.914551" viewBox="0 0 20 19.9146" fill="none" xmlns="http://www.w3.org/2000/svg" xmlns:xlink="http://www.w3.org/1999/xlink">
	<desc>
			Created with Pixso.
	</desc>
	<defs>
		<clipPath id="clip211_72">
			<rect id="carbon:time" width="20.000000" height="19.914713" fill="white" fill-opacity="0"/>
		</clipPath>
	</defs>
	<rect id="carbon:time" width="20.000000" height="19.914713" fill="#FFFFFF" fill-opacity="0"/>
	<g clip-path="url(#clip211_72)">
		<path id="Vector" d="M10 22.0122C8.26953 22.0122 6.57812 21.499 5.13867 20.5376C3.7002 19.5762 2.57812 18.2095 1.91602 16.6108C1.25391 15.0117 1.08008 13.2524 1.41797 11.5552C1.75586 9.85791 2.58887 8.29883 3.8125 7.0752C5.03613 5.85107 6.5957 5.01807 8.29297 4.68018C9.99023 4.34277 11.75 4.51611 13.3486 5.17822C14.9473 5.84033 16.3135 6.96191 17.2754 8.40088C18.2373 9.83984 18.75 11.5317 18.75 13.2622C18.75 15.583 17.8281 17.8086 16.1875 19.4492C14.5459 21.0903 12.3203 22.0122 10 22.0122ZM10 5.76221C8.5166 5.76221 7.06641 6.20215 5.83301 7.02637C4.59961 7.8501 3.63867 9.02148 3.07129 10.3921C2.50293 11.7627 2.35449 13.2705 2.64453 14.7256C2.93359 16.1802 3.64746 17.5166 4.69629 18.5654C5.74512 19.6143 7.08203 20.3286 8.53711 20.6182C9.99121 20.9077 11.5 20.7588 12.8701 20.1914C14.2402 19.6235 15.4121 18.6626 16.2363 17.4292C17.0605 16.1958 17.5 14.7456 17.5 13.2622C17.5 11.2729 16.71 9.36523 15.3037 7.95898C13.8965 6.55225 11.9893 5.76221 10 5.76221Z" fill="#FFFDF5" fill-opacity="1.000000" fill-rule="nonzero"/>
		<path id="Vector" d="M12.8691 17.0122L9.375 13.5186L9.375 7.63721L10.625 7.63721L10.625 12.9995L13.75 16.1309L12.8691 17.0122Z" fill="#FFFDF5" fill-opacity="1.000000" fill-rule="nonzero"/>
	</g>
</svg>
